<svg width="34" height="34" viewBox="0 0 34 34" fill="none" xmlns="http://www.w3.org/2000/svg">
<path d="M32.2298 18.2018C31.9945 21.1591 30.9152 23.9866 29.1202 26.3485C27.3252 28.7104 24.8898 30.5074 22.1036 31.526C19.3173 32.5446 16.2972 32.742 13.4021 32.0946C10.507 31.4473 7.85856 29.9825 5.77142 27.8743C3.68429 25.7661 2.2462 23.1031 1.62801 20.2016C1.00982 17.3001 1.23752 14.2822 2.28405 11.5063C3.33058 8.7304 5.15196 6.31328 7.53179 4.54208C9.91162 2.77089 12.7499 1.72007 15.7093 1.51447" stroke="url(#paint0_linear_87_302)" stroke-width="2.38391" stroke-linecap="round" stroke-linejoin="round"/>
<path d="M23.4336 19.5702C23.0031 20.6782 22.3032 21.6615 21.3972 22.431C20.4912 23.2006 19.4077 23.7322 18.2446 23.9777C17.0815 24.2232 15.8756 24.175 14.7358 23.8373C13.596 23.4997 12.5584 22.8832 11.7168 22.0437C10.8752 21.2043 10.2561 20.1683 9.91546 19.0294C9.57486 17.8905 9.52351 16.6847 9.76605 15.521C10.0086 14.3573 10.5374 13.2724 11.3046 12.3644C12.0718 11.4564 13.0533 10.754 14.1602 10.3206M16.7825 16.9717L22.7423 11.012M22.7423 11.012L27.5101 12.2039L32.2779 7.43609L27.5101 6.24414L26.3181 1.47632L21.5503 6.24414L22.7423 11.012Z" stroke="url(#paint1_linear_87_302)" stroke-width="2.38391" stroke-linecap="round" stroke-linejoin="round"/>
<defs>
<linearGradient id="paint0_linear_87_302" x1="16.7588" y1="1.51447" x2="16.7588" y2="32.468" gradientUnits="userSpaceOnUse">
<stop stop-color="white"/>
<stop offset="1" stop-color="#C1C1C1"/>
</linearGradient>
<linearGradient id="paint1_linear_87_302" x1="20.9468" y1="1.47632" x2="20.9468" y2="24.1319" gradientUnits="userSpaceOnUse">
<stop stop-color="white"/>
<stop offset="1" stop-color="#C1C1C1"/>
</linearGradient>
</defs>
</svg>
