<svg width="18" height="18" viewBox="0 0 18 18" fill="none" xmlns="http://www.w3.org/2000/svg">
<g clip-path="url(#clip0_87_386)">
<path d="M11.4597 12.5682C10.0506 13.6628 8.2772 14.1792 6.50069 14.0122C4.72418 13.8453 3.07809 13.0075 1.89761 11.6694C0.717126 10.3314 0.0910051 8.59374 0.146736 6.81027C0.202466 5.02679 0.935857 3.33161 2.19758 2.06989C3.4593 0.808172 5.15448 0.0747805 6.93795 0.0190501C8.72143 -0.0366804 10.4591 0.58944 11.7971 1.76992C13.1352 2.95041 13.973 4.59649 14.1399 6.373C14.3069 8.14952 13.7905 9.92288 12.6959 11.332L17.3863 16.0049L16.1413 17.2498L11.4685 12.5682H11.4597ZM7.16381 12.2876C7.8546 12.2876 8.53862 12.1516 9.17683 11.8872C9.81503 11.6229 10.3949 11.2354 10.8834 10.7469C11.3718 10.2585 11.7593 9.67858 12.0237 9.04037C12.288 8.40217 12.4241 7.71814 12.4241 7.02736C12.4241 6.33657 12.288 5.65254 12.0237 5.01434C11.7593 4.37613 11.3718 3.79624 10.8834 3.30778C10.3949 2.81932 9.81503 2.43185 9.17683 2.1675C8.53862 1.90314 7.8546 1.76708 7.16381 1.76708C5.7687 1.76708 4.43073 2.32129 3.44423 3.30778C2.45774 4.29427 1.90353 5.63224 1.90353 7.02736C1.90353 8.42247 2.45774 9.76044 3.44423 10.7469C4.43073 11.7334 5.7687 12.2876 7.16381 12.2876Z" fill="#fff"/>
</g>
<defs>
<clipPath id="clip0_87_386">
<rect width="17.5342" height="17.5342" fill="white" transform="translate(0.150391 0.0136719)"/>
</clipPath>
</defs>
</svg>
