<svg width="37" height="26" viewBox="0 0 37 26" fill="none" xmlns="http://www.w3.org/2000/svg">
<path d="M29.9091 0C28.6559 1.19936 27.1652 2.12263 25.5332 2.71022C23.8122 3.01392 19.0498 0.805244 16.7031 3.05993C16.312 3.45105 15.8288 3.84217 15.3227 4.23329C14.2183 3.75014 12.5158 3.01392 11.2734 2.3007C10.0311 1.58748 6.9021 0 6.9021 0L0 8.05245C0 8.05245 1.70252 10.3531 2.76084 11.8716C3.45105 12.8839 4.30231 14.4254 4.85448 15.4607L4.07224 16.381C3.88491 16.7531 3.81751 17.1741 3.87931 17.5862C3.94111 17.9982 4.12908 18.3809 4.41734 18.6817C4.75007 18.9311 5.15491 19.0656 5.57076 19.0648C5.98662 19.0639 6.39091 18.9279 6.72265 18.6771C6.59964 18.8211 6.50655 18.9882 6.4488 19.1686C6.39105 19.3489 6.3698 19.539 6.38629 19.7277C6.40278 19.9164 6.45668 20.0999 6.54485 20.2675C6.63301 20.4351 6.75368 20.5835 6.8998 20.704C7.25112 20.9092 7.65082 21.0169 8.05768 21.0161C8.46453 21.0153 8.8638 20.906 9.2143 20.6994C8.95144 21.027 8.8076 21.4342 8.80635 21.8543C8.80509 22.2743 8.9465 22.6824 9.2074 23.0116C9.54655 23.129 9.90825 23.1664 10.2642 23.1209C10.6202 23.0754 10.9609 22.9482 11.2596 22.7493C11.1108 23.1016 11.0723 23.4906 11.1491 23.8652C11.2259 24.2398 11.4144 24.5823 11.6899 24.8476C12.0789 25.0204 12.5055 25.0917 12.9296 25.0547C13.3538 25.0177 13.7616 24.8736 14.1148 24.6359L15.302 23.5615C16.3879 24.6428 17.8856 25.3123 19.5398 25.3123L19.6802 25.31C20.2253 25.2635 20.7476 25.0695 21.1909 24.749C21.6343 24.4284 21.9821 23.9932 22.1972 23.4901C22.5331 23.619 22.915 23.7064 23.3199 23.7064C23.8629 23.7064 24.3667 23.55 24.7923 23.2808C26.1383 22.3904 25.8162 21.7002 25.8162 21.7002C26.2947 21.9062 26.8263 21.9551 27.3345 21.8397C27.8426 21.7244 28.301 21.4508 28.6437 21.0583C28.9999 20.694 29.2244 20.2213 29.2819 19.7151C29.3394 19.2089 29.2266 18.6979 28.9612 18.263C28.9758 18.2716 28.9926 18.2757 29.0095 18.2745C29.9781 18.2745 30.8202 17.7407 31.2596 16.9539C31.4759 16.3946 31.5489 15.7902 31.4722 15.1955C31.3954 14.6009 31.1713 14.0348 30.8202 13.5488L30.8271 13.5603C32.7137 13.1922 32.6446 12.2489 33.5649 10.8685C34.4363 9.742 35.5205 8.7977 36.756 8.08926L29.9091 0ZM29.7941 16.2429C28.7818 17.2552 27.9995 16.8181 26.274 15.5067C24.5485 14.1953 21.1204 11.7336 21.1204 11.7336C21.2608 12.4353 21.5852 13.045 22.043 13.5304C22.7769 14.3564 24.9626 16.2429 25.9979 17.2092C26.6421 17.8074 28.2986 19.0038 27.3323 19.9241C26.366 20.8443 25.6068 19.9241 24.0193 18.6357C22.4318 17.3473 18.8887 14.1723 18.8887 14.1723C18.8692 14.4767 18.9145 14.7817 19.0216 15.0672C19.1287 15.3528 19.2951 15.6124 19.5099 15.8288C19.9011 16.289 22.0867 18.4056 23.007 19.3719C23.9273 20.3382 24.7325 20.9134 23.9503 21.6726C23.168 22.4318 21.5806 21.2355 20.7063 20.3382C19.3489 19.0268 16.6571 16.588 16.6571 16.588L16.6548 16.71C16.6548 17.3634 16.8802 17.9616 17.2599 18.4355C17.9225 19.3052 19.2108 20.4325 19.9931 21.3068C20.7753 22.181 21.2355 22.9173 19.9931 23.6075C18.7507 24.2977 16.9101 22.5952 16.1049 21.7669V21.7623C16.1051 21.5351 16.0234 21.3154 15.8748 21.1434C15.5996 20.8885 15.2601 20.7135 14.8928 20.6373C14.5255 20.5611 14.1443 20.5865 13.7904 20.7109C13.936 20.5805 14.0527 20.4211 14.1331 20.243C14.2134 20.0648 14.2556 19.8718 14.2569 19.6763C14.2582 19.4809 14.2186 19.2873 14.1406 19.1081C14.0627 18.9289 13.9481 18.768 13.8042 18.6357C13.5022 18.4069 13.1336 18.2832 12.7547 18.2836C12.3758 18.284 12.0075 18.4085 11.706 18.638C11.8584 18.4923 11.9761 18.3143 12.0503 18.1169C12.1245 17.9196 12.1532 17.708 12.1344 17.4981C12.1156 17.2881 12.0498 17.085 11.9417 16.904C11.8337 16.7229 11.6863 16.5685 11.5104 16.4523C11.0985 16.1935 10.6152 16.0719 10.13 16.105C9.64466 16.1381 9.18233 16.3241 8.80938 16.6364C9.05864 16.3343 9.18153 15.9475 9.15238 15.5569C9.12322 15.1664 8.94428 14.8022 8.65293 14.5404C8.29084 14.2034 7.8294 13.9926 7.33758 13.9395C6.84576 13.8864 6.34997 13.9939 5.9243 14.2459L4.39434 11.6622C3.33601 9.98274 2.09364 8.2342 2.09364 8.2342L7.33923 1.86127C7.33923 1.86127 9.2028 3.01162 10.7443 3.88588C11.5035 4.32302 12.8149 4.89819 13.8042 5.35833C12.2397 6.53169 10.9283 7.65903 11.3194 8.44127C12.0164 8.94162 12.8494 9.21759 13.7073 9.23239C14.5652 9.24718 15.4072 9.0001 16.121 8.52409C17.0363 7.91562 18.1118 7.5929 19.2108 7.59691C20.0092 7.59691 20.7684 7.76256 21.4563 8.06395C22.7309 8.92441 25.0776 11.0411 27.2173 12.3755C29.9091 14.3311 30.4383 15.5964 29.7941 16.2406V16.2429Z" fill="url(#paint0_linear_205_511)"/>
<defs>
<linearGradient id="paint0_linear_205_511" x1="23.6618" y1="1.44702" x2="23.6618" y2="26.7593" gradientUnits="userSpaceOnUse">
<stop stop-color="white"/>
<stop offset="1" stop-color="#B8B8B8"/>
</linearGradient>
</defs>
</svg>
