<svg width="30" height="30" viewBox="0 0 30 30" fill="none" xmlns="http://www.w3.org/2000/svg">
<path fill-rule="evenodd" clip-rule="evenodd" d="M26.5937 19.8159V9.66168L22.3387 11.1275V15.3588C22.3387 15.7672 22.1706 16.1588 21.8714 16.4476C21.5721 16.7363 21.1663 16.8985 20.7431 16.8985C20.3199 16.8985 19.9141 16.7363 19.6148 16.4476C19.3156 16.1588 19.1475 15.7672 19.1475 15.3588V12.2279L14.3606 13.8786V26.3773L24.5237 22.6983C25.1316 22.4781 25.6555 22.0842 26.0254 21.5692C26.3953 21.0542 26.5936 20.4425 26.5937 19.8159ZM21.7983 8.0439L25.2023 6.87163C25.0834 6.79241 24.959 6.72107 24.83 6.65812L18.0816 3.4041C17.6891 3.21475 17.2604 3.10554 16.8223 3.08329C16.3841 3.06103 15.9459 3.12621 15.535 3.27476L13.533 3.99947L21.4558 7.82218C21.5835 7.88377 21.6962 7.95768 21.7962 8.0439H21.7983ZM9.4546 5.47353L17.705 9.45637L12.8692 11.1214L4.7741 7.21449C4.92728 7.12826 5.0911 7.05435 5.26343 6.99071L9.4546 5.47353ZM11.1694 13.7451L3.19125 9.89572V20.2778C3.19166 20.8497 3.35708 21.4101 3.66896 21.8964C3.98084 22.3826 4.42687 22.7755 4.95707 23.0309L11.1694 26.0283V13.7451ZM0 9.87519C0 8.98008 0.199985 8.11781 0.565914 7.33767C0.629989 7.05056 0.777596 6.78705 0.991414 6.57805C1.71902 5.46943 2.81042 4.59074 4.14011 4.10828L14.418 0.392328C15.2397 0.0949285 16.116 -0.0357761 16.9924 0.00837892C17.8687 0.0525339 18.7262 0.2706 19.5113 0.648954L26.2597 3.90503C27.3192 4.4169 28.2102 5.20328 28.8328 6.17612C29.4554 7.14896 29.7851 8.26985 29.785 9.41326V19.8159C29.7849 21.0697 29.3883 22.2937 28.6481 23.3242C27.9079 24.3547 26.8594 25.1427 25.6427 25.5828L15.3712 29.2987C14.5492 29.5964 13.6725 29.7273 12.7958 29.6831C11.919 29.639 11.0612 29.4207 10.2758 29.0421L3.52739 25.786C2.46746 25.2744 1.57606 24.4882 0.953052 23.5153C0.330047 22.5425 4.02693e-05 21.4214 0 20.2778V9.87519Z" fill="url(#paint0_linear_87_306)"/>
<defs>
<linearGradient id="paint0_linear_87_306" x1="14.8925" y1="0" x2="14.8925" y2="29.6915" gradientUnits="userSpaceOnUse">
<stop stop-color="white"/>
<stop offset="1" stop-color="#C2C2C3"/>
</linearGradient>
</defs>
</svg>
