<svg width="14" height="14" viewBox="0 0 14 14" fill="none" xmlns="http://www.w3.org/2000/svg">
<path d="M11.5053 2.05112C12.8205 3.35578 13.478 4.92875 13.478 6.77001C13.478 8.61127 12.8205 10.1842 11.5053 11.4889C10.1901 12.7936 8.60659 13.4459 6.7548 13.4459C5.61848 13.4459 4.55581 13.1723 3.56679 12.6252L0 13.5406L0.946935 10.1001C0.357731 9.06896 0.063129 7.95368 0.063129 6.75423C0.063129 4.92349 0.715462 3.35578 2.02013 2.05112C3.32479 0.746449 4.90302 0.0941162 6.7548 0.0941162C8.60659 0.0941162 10.1901 0.746449 11.5053 2.05112ZM6.7548 12.3096C8.29094 12.3096 9.60613 11.7677 10.7004 10.684C11.7946 9.60029 12.3417 8.29037 12.3417 6.75423C12.3417 5.21809 11.7946 3.90816 10.7004 2.82445C9.60613 1.74073 8.29094 1.19887 6.7548 1.19887C5.21867 1.19887 3.90874 1.74073 2.82502 2.82445C1.74131 3.90816 1.19945 5.21809 1.19945 6.75423C1.19945 7.82742 1.48353 8.81644 2.05169 9.72129L2.17795 9.91068L1.60979 11.9624L3.72461 11.4258L3.914 11.5205C4.79781 12.0465 5.74474 12.3096 6.7548 12.3096ZM9.81656 8.14306C10.0059 8.24828 10.1112 8.32193 10.1322 8.36402C10.2164 8.49027 10.1848 8.75331 10.0375 9.15313C9.97438 9.32147 9.81656 9.48456 9.56405 9.64238C9.31153 9.8002 9.09058 9.90016 8.90119 9.94224C8.52242 9.98433 8.17521 9.96328 7.85956 9.87911C7.50183 9.75285 7.18619 9.63712 6.91263 9.5319C6.74428 9.44773 6.5812 9.3583 6.42338 9.2636C6.26555 9.16891 6.11299 9.07422 5.96569 8.97952C5.81839 8.88483 5.68161 8.78488 5.55535 8.67966C5.4291 8.57445 5.3081 8.46923 5.19236 8.36402C5.07662 8.2588 4.96615 8.14833 4.86093 8.03259C4.75572 7.91685 4.66629 7.8169 4.59264 7.73273C4.51899 7.64855 4.44533 7.55912 4.37168 7.46443C4.29803 7.36973 4.24017 7.29608 4.19808 7.24348C4.15599 7.19087 4.11917 7.13826 4.0876 7.08565L4.04026 7.00674C3.57731 6.3965 3.34584 5.81781 3.34584 5.27069C3.34584 4.76566 3.54575 4.30272 3.94556 3.88186C4.07182 3.73456 4.21912 3.66091 4.38747 3.66091C4.51372 3.66091 4.61894 3.67143 4.70311 3.69247C4.87146 3.69247 4.99771 3.78716 5.08189 3.97655C5.12397 4.03968 5.1871 4.17646 5.27127 4.38689L5.49222 4.93927L5.58692 5.20757C5.65005 5.31278 5.66057 5.40747 5.61848 5.49165C5.55535 5.63895 5.50275 5.73364 5.46066 5.77573L5.36597 5.87042L5.27127 5.9809L5.20814 6.05981C5.08189 6.18607 5.05032 6.3018 5.11345 6.40702C5.38701 6.86996 5.70265 7.25926 6.06039 7.5749C6.33394 7.80638 6.78637 8.07994 7.41766 8.39558C7.56496 8.45871 7.6807 8.44819 7.76487 8.36402C8.01738 8.04837 8.19625 7.82742 8.30147 7.70116C8.38564 7.5749 8.5119 7.54334 8.68024 7.60647C8.8065 7.6696 9.18527 7.84846 9.81656 8.14306Z" fill="white"/>
</svg>
